<svg width="75" height="78" viewBox="0 0 75 78" fill="none" xmlns="http://www.w3.org/2000/svg">
<mask id="mask0" mask-type="alpha" maskUnits="userSpaceOnUse" x="0" y="0" width="75" height="76">
<path d="M0 0.213196H74.8578V75.6808H0V0.213196Z" fill="white"/>
</mask>
<g mask="url(#mask0)">
<path d="M37.4302 74.0012C17.6716 74.0012 1.65259 57.8526 1.65259 37.934C1.65259 18.0154 17.6716 1.8668 37.4302 1.8668C57.1888 1.8668 73.2052 18.0128 73.2052 37.934C73.2052 57.8526 57.1888 74.0012 37.4302 74.0012ZM37.4302 0.213196C16.7586 0.213196 0 17.108 0 37.947C0 58.786 16.7586 75.6782 37.4302 75.6782C58.1017 75.6782 74.8578 58.786 74.8578 37.947C74.8578 17.108 58.0991 0.213196 37.4302 0.213196Z" fill="#FEFEFE"/>
</g>
<path d="M37.4302 71.7522C18.9077 71.7522 3.89222 56.6176 3.89222 37.9444C3.89222 19.2764 18.9077 4.13916 37.4302 4.13916C55.95 4.13916 70.9655 19.2738 70.9655 37.9444C70.9655 56.6176 55.95 71.7522 37.4302 71.7522ZM37.4302 3.50476C18.5612 3.50476 3.26636 18.9228 3.26636 37.9444C3.26636 56.966 18.5612 72.3866 37.4302 72.3866C56.2965 72.3866 71.5939 56.9686 71.5939 37.9444C71.5939 18.9254 56.2965 3.50476 37.4302 3.50476Z" fill="#FEFEFE"/>
<path d="M55.4224 47.346C52.3138 53.924 44.5086 58.812 37.5698 58.812C36.9558 58.8121 36.3423 58.7713 35.7336 58.6898C35.3121 58.994 34.2931 59.5166 32.9638 59.8338C43.1535 61.7812 53.2423 56.3498 57.5431 46.5166L56.7259 46.8364C56.1854 47.0444 55.6448 47.2576 55.4224 47.346ZM19.3707 27.9162C21.3905 23.9564 27.3673 17.3758 37.2181 17.3758C40.7147 17.3758 42.7785 18.0882 43.2569 18.2728L45.5483 17.355C43.169 16.341 40.2362 15.7872 37.2181 15.7872C32.9717 15.8079 28.8155 17.0209 25.2181 19.2894C21.5687 21.5908 18.6867 24.9363 16.9423 28.8964C17.752 28.5703 18.5615 28.2435 19.3707 27.9162ZM53.625 22.9996L51.9957 23.6574C53.1078 24.7442 54.8069 27.0296 55.5957 28.6754L57 27.6614C56.0431 25.8258 54.6155 23.8524 53.625 22.9996Z" fill="#FEFEFE"/>
<path d="M46.7276 34.2732C47.1104 34.1172 47.7569 33.8468 48.4733 33.54C49.7742 32.9784 50.7181 31.4626 50.7181 29.9338C50.7181 29.3098 50.4828 28.457 50.263 27.9318L49.9604 27.235L49.5362 26.2522C49.2388 25.5788 49.0759 25.1082 49.0759 24.5492C49.0759 23.8056 49.4561 23.1894 50.069 22.9476C50.113 22.9294 55.8259 20.5556 56.9328 20.0746L56.9302 17.9868L55.5595 18.5588C53.6225 19.3648 50.6949 20.5842 49.4716 21.0808C47.3328 21.9518 47.0147 23.4676 47.0147 24.2944C47.0147 24.7728 47.2138 25.376 47.3095 25.5944C47.5268 26.0624 48.2664 27.7056 48.4759 28.1788C48.6699 28.6026 48.7656 29.0706 48.7656 29.5672C48.7656 30.9192 48.0621 31.8058 46.6759 32.214L46.7276 34.2732ZM38.1802 44.8396C36.7966 42.2838 35.9328 40.7082 35.3613 39.6656C34.8595 38.7478 34.6061 38.2876 34.4742 38.025C33.6776 36.4156 33.4087 35.503 33.4087 34.3954C33.4087 33.1136 34.1147 32.0762 35.1854 31.7486L35.219 29.4996C34.8535 29.6319 34.4914 29.7732 34.1328 29.9234C31.8725 30.8724 31.3992 32.994 31.3992 34.6086C31.3992 36.3506 32.1 37.9756 32.3173 38.4332C33.1475 40.1934 34.544 42.7232 35.5656 44.5692C36 45.357 36.3776 46.0382 36.5975 46.4568C37.1406 47.4968 37.4302 48.6148 37.4302 49.6938C37.4302 53.482 34.4069 56.5604 30.6957 56.5604C29.8094 56.5566 28.9327 56.3749 28.117 56.0261C27.3014 55.6773 26.5632 55.1684 25.9456 54.5291C25.3281 53.8899 24.8436 53.1332 24.5207 52.3034C24.1977 51.4735 24.0427 50.5873 24.0647 49.6964C24.0647 48.7344 24.2794 47.7854 24.7164 46.8052L19.3371 48.9788L13.6475 51.2772V53.4456L21.6388 50.2476L22.0164 50.0994L21.9983 50.5076C21.9259 52.208 22.9035 54.431 24.4345 56.0456C25.6164 57.291 27.6647 58.7756 30.6906 58.7756C35.7259 58.7756 39.5225 54.8678 39.5225 49.686C39.5225 48.1156 39.0699 46.488 38.1802 44.8396Z" fill="#FEFEFE"/>
<path d="M26.5009 46.6622L26.3948 46.8286C25.769 47.8036 25.4897 48.685 25.4897 49.6912C25.4897 53.4196 28.5983 55.1564 30.6983 55.1564C33.8353 55.1564 36.0207 52.3484 36.0207 49.829C36.0207 48.3938 35.4905 47.1432 34.3991 46.007L31.0655 47.333V49.374L32.0147 48.9892C32.5991 48.7526 33.1836 48.5134 33.3336 48.4562L33.5509 48.3678L33.6621 48.5758C34.1095 49.4078 34.0552 50.4088 33.5172 51.3214C32.9069 52.351 31.7974 53.0166 30.6905 53.0166C28.9034 53.0166 27.8431 51.7374 27.5845 50.4686C27.4429 49.7792 27.529 49.0621 27.8295 48.4263C28.1301 47.7905 28.6288 47.2706 29.25 46.9456C28.5647 46.423 28.1638 45.8302 28.0603 45.1828C27.9621 44.5536 28.1638 43.8932 28.6267 43.3238C29.1 42.7414 29.9147 42.3852 30.7086 42.4216C31.1913 42.4391 31.6556 42.6123 32.0328 42.9156V42.6218C32.0405 41.9328 32.0509 41.054 32.0509 40.5756C31.53 40.3634 30.9756 40.2463 30.4138 40.2298C27.8483 40.2298 25.8569 42.7258 25.8569 44.8734C25.8569 45.5754 26.1595 46.2514 26.3741 46.5114L26.5009 46.6622ZM41.5474 43.602L41.3354 44.3664L39.3569 39.2782L37.5776 39.9854C38.6587 42.6356 39.7312 45.2893 40.7948 47.9466L42.2845 47.3616L42.7733 47.1692L44.9095 37.0448L42.8198 37.8924C42.6259 38.7842 41.6431 43.251 41.5474 43.602ZM27.2431 35.5082L27.3336 32.5702L26.3509 33.02C24.6336 33.7948 23.7259 35.3938 23.7336 37.648C23.7336 37.8222 23.7078 39.117 23.6819 40.4846L23.625 43.5994L25.694 42.7596L25.6914 42.6842C25.6836 41.9614 25.6629 40.0452 25.7767 38.207C25.8828 36.4936 25.9914 35.8332 27.2431 35.5082ZM55.1819 32.8562V32.4662C55.1819 32.2946 55.2336 31.07 55.2698 30.3264L53.4621 31.72C53.444 32.2374 53.3638 33.4282 53.3586 33.4828L53.3483 33.6492L52.6707 33.9222L52.6552 36.0698C52.7283 36.0459 52.8008 36.0199 52.8724 35.9918L53.2345 35.8488V36.2388C53.2318 37.4539 53.2266 38.669 53.219 39.884C53.219 40.7238 53.7698 42.185 54.1759 42.6842L54.7293 42.4658L56.1 41.925C55.5491 41.4232 55.0655 40.651 55.0655 39.6968V35.1208L57.3595 34.2056L57.3336 34.6216C57.2856 35.6525 57.2485 36.6839 57.2224 37.7156C57.2224 39.2236 57.6259 40.5808 58.2104 41.0982L60.0983 40.352C59.6638 39.8944 59.1724 39.078 59.1724 38.1758L59.1776 33.6778V33.5036L60.4914 32.9394L60.5224 30.7476L59.2836 31.2338L59.3509 28.5454C58.7716 28.9718 57.7836 29.7024 57.4578 29.9546L57.4474 31.7902V31.9748L57.2742 32.0398L55.8078 32.6118L55.1819 32.8562ZM47.3638 43.9322C48.856 44.759 50.8966 44.5406 52.0836 43.8464V41.9744C51.3491 42.5568 50.4207 42.8792 49.5828 42.8272C49.2502 42.8149 48.9248 42.7265 48.6313 42.5688C48.3378 42.4111 48.0839 42.1883 47.8888 41.9172L47.6948 41.6416L48.0078 41.5168L49.8724 40.7966L51.4448 40.1908V38.2954L50.3069 38.7582C49.2207 39.2002 47.9871 39.7046 47.775 39.7878L47.3767 39.9438L47.4181 39.5148C47.4931 38.7088 47.9457 38.0068 48.7241 37.492C49.6035 36.9122 50.7207 36.6938 51.4474 36.777L51.45 34.8426C51.3358 34.8301 51.2209 34.8241 51.106 34.8244C50.0716 34.8244 48.4423 35.2482 47.206 36.2544C46.0164 37.2164 45.4138 38.5008 45.4138 40.066C45.4138 41.8912 46.0862 43.2276 47.3638 43.9322Z" fill="#FEFEFE"/>
<path d="M20.8474 30.8802L56.9301 16.3124V15.4414L56.9327 14.2584L12.9698 31.9904C9.07753 33.5764 6.65942 37.0396 6.65942 41.0384C6.65942 43.2666 7.64477 45.4376 9.17063 46.5608C10.3189 47.4084 11.7155 47.619 13.2155 47.177V46.6518L13.2129 45.0502C12.4887 45.3492 11.5525 45.292 10.7456 44.8734C9.48615 44.2156 8.7646 42.8194 8.7646 41.0332C8.7646 37.1852 11.656 34.6216 14.131 33.592C16.2879 32.7002 18.2741 31.8708 18.2741 31.8708L18.6491 31.7148L18.6387 32.123C18.6336 32.4272 18.6103 33.085 18.587 33.8026C18.5482 34.8062 18.5094 35.945 18.5094 36.309V36.491L16.2724 37.3932L16.2698 38.8232L16.2672 39.8554L18.4525 38.987V39.377C18.4525 39.5824 18.437 40.3468 18.4189 41.236C18.3982 42.302 18.3749 43.5084 18.3749 43.888C18.3749 45.1152 17.9922 45.8588 17.2034 46.163C16.6732 46.3658 14.2655 47.3122 13.6965 47.5384V49.5794L17.6534 48.0194C19.5439 47.2654 20.3741 46.2436 20.4284 44.6004C20.4827 42.9442 20.5913 39.273 20.5913 38.2902V38.1108L22.7068 37.2268L22.7792 34.762L20.7025 35.5992L20.8474 30.8802ZM63.4344 39.0156L63.4836 34.1406L63.5301 29.6088L61.8129 30.2848L61.6861 39.7228L62.1982 39.5148L63.4344 39.0156ZM63.8534 27.794C63.8608 27.6415 63.8374 27.489 63.7845 27.3458C63.7316 27.2026 63.6504 27.0717 63.5457 26.961C63.441 26.8503 63.315 26.7622 63.1755 26.7019C63.0359 26.6416 62.8856 26.6104 62.7336 26.6102C62.5817 26.61 62.4313 26.6408 62.2916 26.7008C62.1518 26.7608 62.0257 26.8487 61.9207 26.9591C61.8158 27.0696 61.7342 27.2003 61.681 27.3433C61.6278 27.4864 61.604 27.6389 61.6111 27.7914C61.6108 28.0907 61.7287 28.3778 61.939 28.5897C62.1492 28.8016 62.4346 28.9208 62.7323 28.9211C63.0299 28.9215 63.3156 28.8029 63.5263 28.5915C63.737 28.3802 63.8556 28.0933 63.856 27.794" fill="#FEFEFE"/>
<path d="M28.306 39.5018C28.8621 39.2418 29.6767 39.0338 30.2871 39L30.3155 37.4868C30.3543 35.6018 30.4112 32.6404 30.4267 31.5666L28.5155 32.2478L28.306 39.5018ZM29.4517 30.836C29.7501 30.836 30.0362 30.7169 30.2472 30.5048C30.4582 30.2927 30.5767 30.005 30.5767 29.705C30.5767 29.4051 30.4582 29.1174 30.2472 28.9053C30.0362 28.6932 29.7501 28.574 29.4517 28.574C29.1534 28.574 28.8672 28.6932 28.6562 28.9053C28.4452 29.1174 28.3267 29.4051 28.3267 29.705C28.3267 30.005 28.4452 30.2927 28.6562 30.5048C28.8672 30.7169 29.1534 30.836 29.4517 30.836ZM45.4836 34.7698L45.5922 25.4618L43.8077 26.1898L43.6836 35.4848L45.0362 34.9466L45.4836 34.7698ZM45.7474 23.6652C45.7477 23.5167 45.719 23.3696 45.6628 23.2322C45.6065 23.0949 45.524 22.97 45.4197 22.8647C45.3155 22.7594 45.1917 22.6759 45.0553 22.6187C44.919 22.5615 44.7727 22.532 44.625 22.5316C44.3266 22.5316 44.0405 22.6508 43.8295 22.8629C43.6185 23.075 43.5 23.3627 43.5 23.6626C43.5 23.9626 43.6185 24.2502 43.8295 24.4624C44.0405 24.6745 44.3266 24.7936 44.625 24.7936C45.2457 24.7936 45.7474 24.2866 45.7474 23.6652ZM38.2914 30.7892L38.7336 30.6462C39.9621 30.2484 40.5052 30.017 40.5052 28.7144L40.5103 27.5184L42.4862 26.7228V28.1684C42.4862 29.2084 42.494 30.238 41.2836 31.1038C41.2836 31.1038 42.494 31.2078 42.4914 32.9706L42.494 35.971L40.65 36.7146L40.7483 33.7246C40.7612 33.2956 40.6578 32.9628 40.4431 32.734C40.3431 32.6318 40.2227 32.5519 40.09 32.4994C39.9572 32.447 39.8149 32.4233 39.6724 32.4298C39.3103 32.4298 38.8759 32.5598 38.3457 32.8328L38.1621 32.9264L38.1569 33.137C38.1193 34.6797 38.0796 36.2224 38.0379 37.765L36.1862 38.5034L36.4371 25.8154L38.2914 25.0614V30.7892ZM67.3396 34.0392C66.9414 33.137 66.5974 32.357 66.5974 31.603C66.5881 31.2847 66.6535 30.9686 66.7883 30.6805C66.9231 30.3923 67.1235 30.1401 67.3733 29.9442L67.3707 27.781L66.6802 28.067C65.7724 28.4492 64.8 29.536 64.8 31.447C64.8 32.9888 65.3017 34.1302 65.7439 35.139C66.1034 35.9528 66.4112 36.6574 66.4112 37.4218C66.4112 38.4176 65.8681 39.6942 64.8595 40.1024C63.6155 40.6068 42.9362 48.7474 40.8129 49.5846C40.8131 50.2727 40.7647 50.96 40.6681 51.6412C43.9009 50.3646 62.7802 42.9052 65.431 41.8886C67.4069 41.1268 68.4233 39.7306 68.3638 37.8482V37.7702C68.3638 36.3584 67.8207 35.126 67.3396 34.0392Z" fill="#FEFEFE"/>
</svg>
